{"title":"ALIEN 3-1992 in h.264 by winker","uid":5168231,"size":1049360995,"categoryP":"video","categoryS":"movies","magnet":"?xt=urn:btih:a9b03ce617f3abe421022e12898f45b89c55a80b&amp;dn=ALIEN+3-1992+in+h.264+by+winker&amp;tr=udp%3A%2F%2Ftracker.openbittorrent.com%3A80&amp;tr=udp%3A%2F%2Fopen.demonii.com%3A1337&amp;tr=udp%3A%2F%2Ftracker.coppersurfer.tk%3A6969&amp;tr=udp%3A%2F%2Fexodus.desync.com%3A6969","seeders":0,"leechers":0,"uploader":"alanwatson","files":-1,"time":1258538769,"description":" &lt;a href=&quot;http://www.imdb.com/title/tt0103644/&quot; rel=&quot;nofollow&quot; target=&quot;_NEW&quot;&gt;http://www.imdb.com/title/tt0103644/&lt;/a&gt;\n\n\nLt. Ripley (Sigourney Weaver) is the lone survivor when her crippled spaceship crash lands on Fiorina 161, a bleak wasteland inhabited by former inmates of the planet's maximum security prison. Ripley's fears that an Alien was aboard her craft are confirmed when the mutilated bodies of ex-cons begin to mount. Without weapons or modern technology of any kind, Ripley must lead the men into battle against the terrifying creature. And soon she discovers a horrifying fact about her link with the Alien, a realisation that may compel Ripley to try destroying not only the horrific creature, but herself as well.\n\n\nFormat : MPEG-4\nFormat profile : Base Media / Version 2\nCodec ID : mp42\nFile size : 999 MiB\nDuration : 2h 18mn\nOverall bit rate : 1 006 Kbps\nEncoded date : UTC 2009-11-18 02:23:14\nTagged date : UTC 2009-11-18 07:53:02\nWriting application : HandBrake 0.9.3 2008112300\n\nVideo\nID : 1\nFormat : AVC\nFormat/Info : Advanced Video Codec\nFormat profile : &lt;a class=&quot;__cf_email__&quot; href=&quot;/cdn-cgi/l/email-protection&quot; data-cfemail=&quot;83cee2eaedc3cfb7adb3&quot;&gt;[email&amp;#160;protected]&lt;/a&gt;&lt;script cf-hash='f9e31' type=&quot;text/javascript&quot;&gt;\n/* &lt;![CDATA[ */!function(){try{var t=&quot;currentScript&quot;in document?document.currentScript:function(){for(var t=document.getElementsByTagName(&quot;script&quot;),e=t.length;e--;)if(t[e].getAttribute(&quot;cf-hash&quot;))return t[e]}();if(t&amp;&amp;t.previousSibling){var e,r,n,i,c=t.previousSibling,a=c.getAttribute(&quot;data-cfemail&quot;);if(a){for(e=&quot;&quot;,r=parseInt(a.substr(0,2),16),n=2;a.length-n;n+=2)i=parseInt(a.substr(n,2),16)^r,e+=String.fromCharCode(i);e=document.createTextNode(e),c.parentNode.replaceChild(e,c)}}}catch(u){}}();/* ]]&gt; */&lt;/script&gt;\nFormat settings, CABAC : Yes\nFormat settings, ReFrames : 3 frames\nCodec ID : avc1\nCodec ID/Info : Advanced Video Coding\nDuration : 2h 18mn\nBit rate mode : Variable\nBit rate : 842 Kbps\nWidth : 718 pixels\nHeight : 432 pixels\nDisplay aspect ratio : 2.35:1\nFrame rate mode : Variable\nFrame rate : 25.000 fps\nMinimum frame rate : 12.500 fps\nMaximum frame rate : 86.486 fps\nResolution : 24 bits\nColorimetry : 4:2:0\nScan type : Progressive\nBits/(Pixel*Frame) : 0.109\nStream size : 837 MiB (84%)\nWriting library : x264 core 65\n\n\nAudio\nID : 2\nFormat : AAC\nFormat/Info : Advanced Audio Codec\nFormat version : Version 4\nFormat profile : LC\nFormat settings, SBR : No\nCodec ID : 40\nDuration : 2h 18mn\nBit rate mode : Variable\nBit rate : 160 Kbps\nMaximum bit rate : 245 Kbps\nChannel(s) : 2 channels\nChannel positions : L R\nSampling rate : 48.0 KHz\nResolution : 16 bits\nStream size : 159 MiB (16%)\nLanguage : English\nEncoded date : UTC 2009-11-18 02:23:14\nTagged date : UTC 2009-11-18 07:52:56 ","torrent":{"xt":"urn:btih:a9b03ce617f3abe421022e12898f45b89c55a80b","amp;dn":"ALIEN+3-1992+in+h.264+by+winker","amp;tr":["udp%3A%2F%2Ftracker.openbittorrent.com%3A80","udp%3A%2F%2Fopen.demonii.com%3A1337","udp%3A%2F%2Ftracker.coppersurfer.tk%3A6969","udp%3A%2F%2Fexodus.desync.com%3A6969"],"infoHash":"a9b03ce617f3abe421022e12898f45b89c55a80b","infoHashBuffer":{"type":"Buffer","data":[169,176,60,230,23,243,171,228,33,2,46,18,137,143,69,184,156,85,168,11]},"announce":[],"urlList":[]}}